<?xml version="1.0" standalone="no"?>
<!DOCTYPE svg PUBLIC "-//W3C//DTD SVG 20010904//EN"
 "http://www.w3.org/TR/2001/REC-SVG-20010904/DTD/svg10.dtd">
<svg version="1.0" xmlns="http://www.w3.org/2000/svg"
 width="1600.000000pt" height="1600.000000pt" viewBox="0 0 1600.000000 1600.000000"
 preserveAspectRatio="xMidYMid meet">

<g transform="translate(0.000000,1600.000000) scale(0.100000,-0.100000)"
fill="#000000" stroke="none">
<path d="M8130 13293 c-70 -41 -172 -127 -254 -214 -172 -182 -297 -430 -345
-684 l-16 -90 -34 172 c-33 169 -34 172 -55 161 -89 -46 -247 -191 -325 -297
-203 -276 -234 -609 -88 -951 22 -52 50 -110 61 -129 l20 -34 7 25 c4 15 7 54
8 87 1 112 61 339 105 402 13 20 15 17 25 -38 39 -205 131 -377 252 -470 54
-42 125 -80 133 -72 2 2 0 29 -5 59 -24 144 -5 392 40 523 27 76 86 192 129
252 39 54 151 175 162 175 3 0 12 -27 18 -60 19 -90 90 -220 202 -369 124
-165 170 -231 204 -299 32 -63 66 -189 66 -244 0 -50 13 -49 88 6 62 46 125
121 160 191 27 54 62 171 62 206 0 16 4 29 9 29 13 0 86 -110 106 -160 9 -25
25 -90 34 -145 l17 -100 36 70 c42 82 80 199 104 315 22 108 15 452 -10 545
-75 269 -160 427 -314 584 -66 67 -152 141 -164 141 -2 0 -1 -37 1 -82 2 -45
-2 -107 -9 -137 -16 -77 -72 -187 -123 -246 l-43 -49 -36 60 c-51 85 -67 119
-95 198 -49 145 -65 257 -70 484 -3 116 -8 212 -11 212 -4 0 -27 -12 -52 -27z"/>
<path d="M9232 11010 c-12 -20 -23 -20 -1527 -20 l-1515 0 0 -105 0 -105 35 0
c30 0 36 -4 41 -27 3 -16 15 -63 25 -105 143 -576 637 -1048 1257 -1200 129
-31 172 -33 80 -4 -244 78 -480 287 -659 584 -86 140 -189 368 -224 494 -7 25
-15 50 -18 55 -3 5 -15 45 -27 89 -11 43 -23 87 -26 97 -5 16 11 17 240 17
l246 0 0 -49 c0 -148 34 -349 86 -507 94 -290 317 -584 569 -752 l103 -69 124
3 c142 3 155 7 312 113 405 270 661 683 726 1169 l13 92 38 0 c42 0 44 -2 30
-46 -5 -16 -24 -81 -41 -144 -156 -570 -363 -952 -597 -1100 -29 -18 -53 -34
-53 -36 0 -7 95 22 188 57 415 157 747 450 934 824 59 116 94 216 122 340 l23
100 37 3 36 3 0 105 0 104 -259 0 c-143 0 -266 3 -275 6 -9 3 -16 12 -16 20 0
20 -13 17 -28 -6z"/>
<path d="M6046 9749 c-76 -18 -96 -44 -181 -231 -43 -95 -92 -202 -108 -238
-73 -158 -38 -260 110 -328 37 -17 120 -54 183 -82 63 -29 147 -67 185 -85
204 -93 325 -146 353 -151 90 -18 173 46 226 175 17 39 35 71 42 71 11 0 86
-32 214 -92 36 -17 151 -69 255 -116 105 -46 213 -95 242 -108 l52 -23 86 38
c47 21 86 42 87 47 0 5 -49 31 -108 58 -134 59 -398 178 -479 216 -33 15 -112
51 -177 80 l-116 52 39 85 c62 136 52 222 -33 286 -18 13 -44 28 -58 32 -14 4
-29 11 -35 15 -5 4 -43 22 -84 40 -40 17 -105 46 -145 64 -39 18 -109 50 -156
71 -47 20 -119 53 -160 72 -81 39 -154 64 -179 62 -9 -1 -34 -5 -55 -10z m335
-298 c382 -171 397 -178 404 -200 9 -30 -12 -61 -41 -61 -14 0 -68 20 -122 44
-142 65 -398 180 -467 210 -87 39 -90 40 -93 70 -4 31 13 56 37 56 10 0 136
-53 282 -119z m-249 -100 c46 -21 166 -76 268 -121 102 -46 213 -95 248 -111
43 -19 62 -33 62 -46 0 -25 -28 -63 -46 -63 -13 0 -63 22 -359 155 -27 13
-102 46 -165 75 -143 64 -160 75 -160 103 0 58 41 60 152 8z m-51 -187 c68
-31 214 -97 324 -146 110 -50 206 -96 214 -103 18 -17 7 -61 -18 -75 -19 -10
-41 -1 -446 182 -60 27 -137 61 -170 76 -78 33 -85 39 -85 71 0 31 16 51 41
51 9 0 72 -25 140 -56z"/>
<path d="M9835 9746 c-22 -7 -69 -27 -105 -44 -36 -17 -105 -48 -155 -70 -49
-22 -166 -75 -260 -117 -93 -43 -179 -81 -191 -85 -31 -12 -83 -59 -99 -91
-26 -50 -19 -128 20 -213 19 -43 35 -81 35 -87 0 -9 -30 -24 -280 -136 -80
-36 -167 -75 -195 -88 -137 -64 -191 -88 -315 -143 -74 -33 -164 -73 -200 -90
-83 -38 -131 -60 -430 -194 -135 -61 -297 -134 -360 -163 -63 -29 -149 -67
-190 -85 -117 -51 -149 -102 -95 -155 41 -42 57 -38 270 60 28 13 93 42 145
65 52 23 149 66 215 97 195 89 202 92 400 180 104 47 231 105 283 129 51 24
95 44 97 44 2 0 36 15 77 34 40 19 141 64 223 101 83 37 173 77 200 90 136 64
208 95 218 95 7 0 28 -36 47 -80 53 -122 129 -181 216 -167 30 5 213 83 459
197 44 20 134 61 200 91 66 29 137 69 157 87 73 66 76 161 11 302 -22 47 -68
147 -103 223 -69 151 -88 180 -129 202 -42 21 -120 27 -166 11z m94 -190 c16
-19 10 -67 -9 -77 -17 -9 -71 -34 -330 -149 -96 -43 -204 -92 -240 -109 -82
-39 -117 -40 -130 -5 -18 47 -33 39 390 230 30 14 102 47 160 74 113 52 141
58 159 36z m79 -178 c19 -19 14 -56 -10 -72 -13 -8 -70 -36 -128 -61 -58 -26
-127 -57 -155 -70 -27 -13 -72 -33 -100 -45 -27 -12 -72 -32 -100 -45 -185
-85 -196 -88 -214 -49 -18 40 -6 60 52 84 81 35 433 194 517 233 79 38 118 45
138 25z m81 -172 c7 -8 11 -27 9 -42 -3 -24 -17 -33 -124 -83 -67 -31 -137
-62 -155 -70 -19 -8 -65 -29 -104 -47 -38 -17 -116 -52 -172 -78 -56 -25 -111
-46 -122 -46 -28 0 -55 43 -42 67 5 10 106 61 232 118 123 55 268 121 323 147
109 50 137 56 155 34z"/>
<path d="M5005 8330 c-16 -34 -34 -65 -40 -70 -6 -5 -39 -13 -74 -19 -35 -6
-66 -13 -69 -16 -3 -3 18 -30 47 -59 l53 -54 -13 -71 c-7 -39 -10 -73 -7 -76
2 -3 34 11 71 31 l67 35 66 -36 c37 -19 69 -33 71 -31 3 3 0 37 -7 76 l-12 72
53 54 c29 29 50 56 47 59 -3 3 -34 10 -69 16 -35 6 -69 14 -75 20 -6 5 -24 36
-40 69 -16 33 -31 60 -34 60 -4 0 -19 -27 -35 -60z"/>
<path d="M10667 8383 c-4 -3 -21 -35 -37 -69 -29 -62 -30 -63 -77 -69 -75 -10
-103 -16 -103 -23 0 -3 23 -30 52 -59 l51 -52 -12 -72 c-6 -39 -10 -74 -7 -76
2 -3 34 12 70 32 l65 36 70 -36 c81 -40 80 -41 59 59 l-11 57 58 59 58 59 -39
6 c-124 19 -116 14 -155 88 -19 37 -38 64 -42 60z"/>
<path d="M8287 8328 c-48 -23 -87 -44 -87 -48 0 -4 15 -13 33 -20 17 -7 61
-26 97 -42 36 -17 126 -57 200 -90 74 -33 169 -76 210 -96 180 -84 205 -88
245 -47 31 30 32 67 3 98 -13 13 -97 57 -188 97 -91 40 -201 90 -246 111 -44
21 -103 47 -130 57 l-50 20 -87 -40z"/>
<path d="M4070 8293 c-31 -59 -31 -59 -91 -67 -27 -4 -49 -10 -49 -14 0 -4 18
-26 39 -49 38 -41 38 -42 29 -93 -5 -29 -7 -54 -5 -57 3 -2 28 7 56 21 l51 26
51 -26 c28 -14 54 -23 57 -20 3 4 0 29 -7 58 l-12 52 43 43 c23 23 39 45 36
48 -3 3 -28 8 -57 12 -50 6 -52 7 -78 59 -15 30 -30 54 -33 54 -3 0 -17 -21
-30 -47z"/>
<path d="M11602 8328 c-5 -7 -19 -31 -30 -54 -20 -38 -24 -41 -73 -47 -28 -4
-54 -9 -57 -12 -3 -3 14 -25 37 -49 l43 -44 -10 -48 c-6 -27 -8 -52 -6 -56 3
-4 28 4 56 18 l51 26 47 -26 c26 -14 51 -26 54 -26 4 0 4 27 0 61 l-7 60 43
44 42 43 -54 7 c-67 8 -68 9 -96 68 -26 52 -26 52 -40 35z"/>
<path d="M12534 8265 c-16 -34 -25 -41 -62 -49 -23 -5 -42 -12 -42 -17 0 -4
12 -17 27 -29 23 -18 26 -27 24 -65 -1 -25 0 -45 3 -45 3 0 21 7 39 16 31 15
36 15 65 0 43 -22 45 -21 39 25 -5 35 -1 45 24 74 l30 34 -44 6 c-39 6 -46 11
-64 48 l-20 42 -19 -40z"/>
<path d="M3135 8256 c-12 -29 -21 -35 -55 -41 -22 -4 -40 -10 -40 -14 0 -4 12
-18 26 -32 22 -21 25 -30 20 -66 -6 -48 -1 -51 41 -26 27 15 32 15 63 0 18
-10 35 -17 37 -17 1 0 3 21 3 46 0 37 5 50 25 66 34 27 32 35 -16 43 -33 6
-43 13 -56 41 -21 43 -30 43 -48 0z"/>
<path d="M2200 8220 c-6 -11 -20 -20 -30 -20 -24 0 -26 -13 -5 -30 9 -7 13
-21 9 -35 -5 -20 -2 -22 40 -21 40 1 46 4 46 22 0 12 7 27 15 34 18 15 11 30
-15 30 -10 0 -22 9 -25 20 -3 11 -10 20 -15 20 -5 0 -14 -9 -20 -20z"/>
<path d="M13475 8220 c-3 -11 -15 -20 -25 -20 -26 0 -33 -15 -15 -30 8 -7 15
-22 15 -34 0 -18 6 -21 44 -22 40 -1 45 2 49 25 2 14 8 34 12 44 5 13 2 17
-15 17 -13 0 -24 8 -27 20 -3 11 -11 20 -18 20 -8 0 -17 -9 -20 -20z"/>
<path d="M5833 7241 c-81 -39 -137 -97 -179 -184 -40 -87 -54 -165 -54 -313 0
-61 -3 -159 -7 -217 l-6 -107 -119 0 -118 0 0 -50 0 -50 120 0 120 0 0 -745 0
-746 -25 -24 c-13 -14 -33 -25 -45 -25 -17 0 -20 -6 -20 -45 l0 -45 215 0 215
0 0 45 c0 39 -3 45 -20 45 -12 0 -32 11 -45 25 l-25 24 0 746 0 745 150 0 150
0 0 50 0 50 -151 0 -151 0 5 288 c3 222 8 300 21 345 17 63 49 114 78 123 58
18 131 -3 153 -45 16 -33 7 -52 -40 -81 -68 -42 -92 -137 -53 -205 61 -105
191 -115 264 -19 27 34 29 44 29 118 -1 69 -5 89 -28 134 -38 72 -95 132 -154
162 -37 19 -67 25 -133 28 -77 3 -91 0 -147 -27z"/>
<path d="M3469 7230 c-196 -25 -365 -176 -407 -365 -34 -149 -37 -231 -37
-940 0 -638 2 -720 18 -805 43 -231 172 -377 382 -431 215 -57 442 29 533 199
46 87 62 167 62 320 l0 132 -38 0 -39 0 -6 -112 c-8 -140 -21 -206 -58 -284
-50 -106 -131 -163 -264 -184 -110 -18 -198 7 -258 74 -39 43 -54 74 -74 153
-15 61 -17 155 -16 958 0 785 2 897 16 952 21 80 47 131 88 171 56 55 93 67
204 67 91 0 104 -2 145 -27 128 -77 182 -182 211 -410 l12 -88 38 0 39 0 0
315 0 315 -44 0 c-42 0 -44 -1 -50 -35 -4 -21 -17 -41 -32 -51 -23 -16 -28
-15 -107 21 -137 63 -188 72 -318 55z"/>
<path d="M9790 7195 c0 -39 3 -45 20 -45 30 0 75 -25 92 -52 9 -13 20 -43 25
-68 6 -25 25 -99 42 -165 18 -66 48 -178 67 -250 19 -71 79 -307 134 -523
l100 -393 0 -429 c0 -248 -4 -439 -10 -454 -6 -18 -19 -27 -45 -32 -35 -6 -36
-7 -33 -48 l3 -41 215 0 214 0 4 43 c3 39 2 42 -22 42 -14 0 -35 9 -46 20 -20
20 -21 29 -18 478 l4 457 60 180 c59 173 94 283 281 865 46 146 89 277 94 292
15 37 52 69 90 77 30 6 33 10 35 44 3 47 -2 49 -176 45 l-135 -3 -3 -41 c-3
-39 -1 -42 27 -47 37 -8 48 -40 31 -94 -31 -101 -356 -1095 -367 -1123 -7 -20
-4 -32 -139 498 -63 249 -126 494 -139 545 -14 51 -25 104 -25 118 0 29 27 59
53 59 13 0 17 10 17 45 l0 45 -225 0 -225 0 0 -45z"/>
<path d="M11688 7234 c-5 -4 -8 -24 -8 -44 0 -33 3 -38 30 -43 64 -13 60 60
60 -1182 0 -1243 4 -1169 -60 -1182 -28 -5 -30 -9 -30 -49 l0 -44 215 0 215 0
0 44 c0 40 -2 44 -29 49 -56 12 -56 10 -56 537 l0 485 155 6 c98 4 174 13 206
23 166 52 288 179 335 348 21 77 22 103 22 338 0 284 -8 344 -67 455 -57 111
-149 185 -283 232 -77 26 -83 27 -388 31 -170 2 -313 0 -317 -4z m647 -139
c63 -43 95 -84 128 -166 20 -51 22 -73 25 -363 2 -201 0 -332 -8 -374 -20
-115 -88 -218 -173 -260 -41 -20 -57 -22 -164 -20 l-118 3 -3 590 c-1 325 0
600 3 613 6 23 7 24 129 20 l124 -3 57 -40z"/>
<path d="M8107 7223 c-4 -3 -7 -24 -7 -45 0 -34 3 -38 24 -38 15 0 33 -11 45
-26 21 -27 21 -29 21 -1158 0 -1248 4 -1176 -61 -1176 -28 0 -29 -2 -29 -46
l0 -45 343 3 342 3 70 28 c178 70 294 209 325 388 8 44 10 319 8 889 -3 815
-3 826 -24 880 -53 136 -132 228 -241 284 -115 57 -182 66 -516 66 -161 0
-297 -3 -300 -7z m655 -128 c103 -51 158 -127 178 -246 14 -87 14 -1701 -1
-1789 -19 -121 -70 -193 -169 -239 -49 -23 -70 -26 -192 -29 l-138 -4 0 1172
0 1173 133 -5 c119 -4 137 -7 189 -33z"/>
<path d="M4520 6446 c-113 -30 -224 -118 -267 -212 -49 -108 -56 -244 -14
-303 42 -58 136 -87 203 -62 37 14 87 72 99 113 20 76 -15 155 -86 195 -56 31
-65 40 -65 72 0 90 190 158 324 116 114 -36 186 -129 194 -250 8 -126 -22
-175 -177 -288 -89 -66 -228 -157 -237 -157 -14 0 -127 -96 -171 -144 -133
-150 -188 -331 -154 -508 50 -255 277 -411 497 -342 72 22 163 89 204 149 l32
47 25 -54 c33 -71 76 -114 140 -138 78 -29 156 -26 218 8 52 29 103 91 107
132 3 22 -1 25 -30 28 -24 2 -34 -1 -39 -15 -15 -43 -45 -72 -79 -79 -41 -8
-90 10 -107 40 -9 16 -13 187 -17 667 l-5 645 -39 78 c-65 132 -177 224 -319
262 -63 17 -176 17 -237 0z m350 -1390 c-14 -113 -49 -172 -119 -204 -127 -58
-286 15 -326 151 -50 167 -12 345 104 490 51 65 80 91 245 223 l101 80 3 -330
c2 -189 -2 -365 -8 -410z"/>
<path d="M6670 6444 c-177 -48 -293 -160 -344 -333 -14 -47 -16 -123 -16 -522
0 -531 5 -580 64 -678 39 -64 134 -159 186 -186 239 -124 526 -63 633 133 31
57 57 180 57 270 l0 62 -39 0 -39 0 -7 -67 c-24 -241 -112 -346 -313 -375 -72
-10 -81 -9 -130 12 -72 31 -126 95 -153 179 -18 57 -22 99 -26 319 l-6 252
357 0 356 0 0 258 c0 284 -7 345 -52 439 -87 184 -326 291 -528 237z m205
-115 c42 -20 82 -86 107 -176 18 -66 22 -113 26 -310 l4 -233 -232 0 -232 0 4
248 c3 199 7 260 22 314 20 74 69 141 120 164 38 18 139 14 181 -7z"/>
<path d="M9455 4961 c-100 -45 -112 -177 -23 -242 100 -72 228 -6 228 118 0
59 -27 100 -84 127 -44 21 -71 20 -121 -3z"/>
<path d="M11295 4961 c-100 -45 -112 -177 -23 -242 100 -72 228 -6 228 118 0
59 -27 100 -84 127 -44 21 -71 20 -121 -3z"/>
<path d="M10764 4091 c-2 -2 -4 -40 -4 -83 l0 -78 1569 0 c1678 0 1585 -3
1576 46 -2 11 -4 40 -4 66 l-1 48 -1566 2 c-861 2 -1568 1 -1570 -1z"/>
<path d="M2090 4010 l0 -80 1575 0 1575 0 0 80 0 80 -1575 0 -1575 0 0 -80z"/>
<path d="M5480 3355 l0 -265 186 0 185 0 -3 23 c-3 22 -6 22 -161 25 l-158 3
3 97 3 97 125 2 c69 1 131 2 138 2 6 1 12 10 12 21 0 18 -8 20 -137 22 l-138
3 0 90 0 90 153 3 152 3 0 24 0 25 -180 0 -180 0 0 -265z"/>
<path d="M6045 3606 c-84 -31 -123 -112 -89 -183 23 -47 59 -68 166 -97 106
-29 122 -38 138 -76 28 -68 -27 -115 -135 -115 -58 0 -78 5 -120 28 -47 27
-50 27 -63 10 -11 -16 -9 -21 15 -41 38 -30 85 -42 172 -42 128 0 191 48 191
145 0 70 -31 96 -165 137 -59 18 -118 43 -131 55 -41 38 -25 102 33 132 34 17
133 13 179 -8 42 -19 64 -14 64 14 0 40 -180 68 -255 41z"/>
<path d="M6354 3605 c-11 -28 7 -35 97 -35 l89 0 0 -240 0 -240 30 0 30 0 0
240 0 240 90 0 c89 0 90 0 90 25 l0 25 -210 0 c-175 0 -212 -2 -216 -15z"/>
<path d="M6886 3364 c-64 -141 -116 -260 -116 -265 0 -5 11 -9 26 -9 21 0 30
10 55 65 l31 65 148 0 147 0 29 -65 c27 -59 32 -64 60 -65 l31 0 -120 265
c-159 350 -136 350 -291 9z m207 47 c31 -71 57 -131 57 -135 0 -3 -54 -6 -120
-6 -66 0 -120 3 -120 8 0 13 112 262 119 262 3 0 32 -58 64 -129z"/>
<path d="M7388 3614 c-5 -4 -8 -124 -8 -266 l0 -260 173 4 c188 4 209 9 245
62 46 67 21 161 -51 191 -30 12 -30 13 -9 24 52 28 70 135 31 185 -39 50 -72
59 -229 64 -80 2 -148 1 -152 -4z m292 -62 c68 -34 77 -116 17 -153 -27 -16
-51 -19 -144 -19 l-113 0 0 95 0 95 103 0 c77 0 111 -4 137 -18z m30 -240 c48
-23 65 -61 50 -108 -18 -52 -54 -64 -200 -64 l-120 0 0 95 0 95 118 0 c91 0
125 -4 152 -18z"/>
<path d="M7950 3356 l0 -266 176 0 175 0 -3 23 c-3 21 -6 22 -145 25 l-143 3
-2 237 -3 237 -27 3 -28 3 0 -265z"/>
<path d="M8390 3356 l0 -266 30 0 30 0 -2 263 -3 262 -27 3 -28 3 0 -265z"/>
<path d="M8675 3605 c-22 -8 -52 -28 -67 -45 -24 -25 -28 -39 -28 -86 0 -75
29 -104 131 -134 160 -46 189 -64 189 -118 0 -37 -50 -79 -103 -87 -55 -8
-140 9 -179 37 -31 22 -48 17 -48 -13 0 -35 99 -73 190 -73 129 1 190 47 190
144 0 78 -35 108 -165 144 -111 30 -142 50 -151 95 -5 26 -1 36 29 66 33 33
39 35 99 35 41 0 78 -7 107 -21 46 -20 64 -14 58 21 -6 40 -173 63 -252 35z"/>
<path d="M9080 3356 l0 -266 25 0 24 0 3 123 3 122 160 0 160 0 3 -122 3 -123
29 0 30 0 0 266 0 265 -27 -3 -28 -3 -3 -112 -3 -113 -87 -1 c-117 -2 -160 -2
-205 0 l-38 1 2 113 2 112 -27 3 -26 3 0 -265z"/>
<path d="M9690 3618 c0 -2 -1 -121 -3 -266 l-2 -262 188 0 188 0 -3 23 c-3 22
-6 22 -160 25 l-158 3 0 93 c0 112 -9 107 155 99 102 -5 115 -4 115 11 0 9 0
19 0 24 0 4 -60 9 -132 12 l-133 5 -3 93 -3 92 156 0 156 0 -3 23 c-3 22 -5
22 -180 25 -98 1 -178 1 -178 0z"/>
<path d="M10190 3355 l0 -267 158 4 c177 4 210 14 272 84 48 55 64 99 63 179
-1 83 -19 130 -69 181 -63 63 -109 76 -276 82 l-148 4 0 -267z m334 181 c25
-15 59 -46 74 -68 23 -35 27 -52 27 -112 0 -94 -33 -155 -105 -191 -44 -22
-62 -25 -160 -25 l-110 0 0 216 0 217 113 -5 c102 -4 119 -7 161 -32z"/>
<path d="M6310 2980 l0 -40 267 2 267 3 0 35 1 35 -267 3 -268 2 0 -40z"/>
<path d="M9152 2983 l3 -38 268 -3 267 -2 0 40 0 40 -271 0 -270 0 3 -37z"/>
<path d="M7363 2480 c-43 -10 -97 -43 -100 -61 -2 -7 9 -22 23 -32 24 -18 26
-18 44 -2 48 44 164 37 176 -10 12 -49 -7 -79 -122 -194 -81 -81 -114 -120
-114 -137 l0 -24 165 0 c91 0 168 0 173 0 4 0 7 15 7 33 l0 32 -104 3 -103 3
90 93 c95 98 113 135 97 204 -16 75 -124 118 -232 92z"/>
<path d="M7801 2478 c-86 -29 -137 -131 -128 -253 10 -141 77 -215 193 -215
83 0 144 44 180 129 23 53 15 192 -14 248 -41 79 -145 120 -231 91z m96 -68
c48 -17 73 -73 73 -164 0 -110 -35 -166 -103 -166 -71 0 -112 73 -105 189 4
76 24 115 69 138 29 15 29 15 66 3z"/>
<path d="M8450 2475 c-26 -8 -56 -25 -69 -39 l-22 -24 31 -22 c29 -21 32 -21
49 -6 51 46 151 39 169 -12 15 -45 -5 -77 -127 -197 -158 -157 -156 -161 72
-157 l167 3 0 34 0 35 -107 0 -108 0 87 83 c94 90 108 113 108 187 0 39 -5 54
-28 78 -47 50 -133 64 -222 37z"/>
<path d="M8100 2445 l0 -35 50 0 50 0 0 -194 0 -194 26 -6 c14 -4 34 -4 45 -1
18 6 19 19 19 236 l0 229 -95 0 -95 0 0 -35z"/>
</g>
</svg>
